# xmcd CD database file
#
# Track frame offsets:
#	150
#	10849
#	25310
#	37368
#	52524
#	63370
#	73811
#	86139
#	97970
#	108613
#	127739
#	138769
#	154558
#	168947
#	179508
#	192451
#	205216
#	219082
#	231895
#	243238
#	254242
#	272392
#	290179
#	306788
#	319165
#
# Disc length: 4414 seconds
#
# Revision: 0
# Processed by: cddbd v1.4PL0 Copyright (c) Steve Scherf et al.
# Submitted via: CDex 1.50beta9
#
DISCID=67113c19
DTITLE=Esther Phillips - Set Me Free
DYEAR=1986
DGENRE=Jazz
TTITLE0=Mojo Hanna
TTITLE1=I Saw Me
TTITLE2=Double Crossing Blues
TTITLE3=Hello Walls
TTITLE4=Some Things You Never Get Used To
TTITLE5=Let Me Know When It's Over
TTITLE6=Ups And Downs
TTITLE7=Catch Me I'm Fallin'
TTITLE8=I'm In Love
TTITLE9=Brand New Day
TTITLE10=Just Like A Fish
TTITLE11=Tomorrow Night
TTITLE12=Some Cats Know
TTITLE13=Cheater Man
TTITLE14=When A Woman Loves A Man
TTITLE15=Fever
TTITLE16=When Love Comes To The Human Race
TTITLE17=Try Me
TTITLE18=I'm Sorry
TTITLE19=Somebody Else Is Taking My Place
TTITLE20=Set Me Free
TTITLE21=All God Has Is Us
TTITLE22=He Knows
TTITLE23=Woman Will Do No Wrong
TTITLE24=Crazy Love
EXTD=YEAR: 1986
EXTT0=
EXTT1=
EXTT2=
EXTT3=
EXTT4=
EXTT5=
EXTT6=
EXTT7=
EXTT8=
EXTT9=
EXTT10=
EXTT11=
EXTT12=
EXTT13=
EXTT14=
EXTT15=
EXTT16=
EXTT17=
EXTT18=
EXTT19=
EXTT20=
EXTT21=
EXTT22=
EXTT23=
EXTT24=
PLAYORDER=
